<?xml version="1.0" encoding="UTF-8"?>
<!DOCTYPE svg PUBLIC "-//W3C//DTD SVG 1.1//EN" "http://www.w3.org/Graphics/SVG/1.1/DTD/svg11.dtd">
<!-- Creator: CorelDRAW 2019 (64-Bit) -->
<svg xmlns="http://www.w3.org/2000/svg" xml:space="preserve" width="108px" height="35px" version="1.1" style="shape-rendering:geometricPrecision; text-rendering:geometricPrecision; image-rendering:optimizeQuality; fill-rule:evenodd; clip-rule:evenodd"
viewBox="0 0 40.5 13.12"
 xmlns:xlink="http://www.w3.org/1999/xlink"
 xmlns:xodm="http://www.corel.com/coreldraw/odm/2003">
 <defs>
  <style type="text/css">
   <![CDATA[
    .fil0 {fill:none}
    .fil1 {fill:white}
    .fil2 {fill:white;fill-rule:nonzero}
   ]]>
  </style>
 </defs>
 <g id="Layer_x0020_1">
  <metadata id="CorelCorpID_0Corel-Layer"/>
  <rect class="fil0" width="40.5" height="13.12"/>
  <path class="fil1" d="M2.71 5.52c0.08,0.58 0,0.81 0.23,1.56 0.22,0.68 0.51,1.23 0.97,1.72 0.26,0.28 0.22,0.22 0.46,0.44 0.29,0.25 0.7,0.5 1.12,0.67 0.96,0.39 1.95,0.52 3.09,0.49 0.56,-0.02 1.09,-0.08 1.63,-0.15 0.42,-0.06 1.23,-0.15 1.17,-0.63 -0.13,-0.29 -0.58,-0.32 -0.95,-0.34 -1,-0.06 -1.87,-0.26 -2.61,-0.94 -0.25,-0.22 -0.54,-0.6 -0.73,-0.88 -0.17,-0.27 -0.3,-0.55 -0.45,-0.85 -0.2,-0.39 -0.4,-0.94 -0.59,-1.37 -0.07,-0.15 -0.15,-0.28 -0.22,-0.43l-0.05 0.01c0.06,-0.03 0.13,-0.07 0.19,-0.12 0.05,-0.06 0.07,-0.12 0.05,-0.22 -0.11,-0.1 -0.28,-0.04 -0.48,-0.19 -0.18,-0.14 -0.23,-0.13 -0.43,-0.24 0.13,-0.17 0.23,-0.2 0.33,-0.48 0.08,-0.24 0.15,-0.51 -0.07,-0.64 -0.19,0.03 -0.13,0.14 -0.29,0.23 -0.11,0.06 -0.25,0.08 -0.37,0.14 -0.23,0.12 -0.33,0.26 -0.45,0.45l-0.07 0.09 0.01 -0.79c0.08,-0.07 0.05,-0.45 -0.35,-0.44 -0.12,0.01 -0.13,0.03 -0.16,0.12 -0.04,0.23 -0.04,0.38 -0.01,0.61 0.03,0.2 0.1,0.4 0.11,0.57 -0.18,-0.13 -0.32,-0.23 -0.62,-0.26 -0.17,-0.01 -0.29,0.03 -0.43,0.02 -0.18,-0.01 -0.18,-0.1 -0.38,-0.08 -0.19,0.28 0.25,0.72 0.56,0.84 0.1,0.04 0.11,0.02 0.18,0.09 -0.13,0.08 -0.23,0.2 -0.32,0.38 -0.15,0.31 -0.22,0.2 -0.36,0.38 0.01,0.19 0.15,0.16 0.29,0.24zm2.74 -0.59c-0.13,0.03 -0.29,0.03 -0.55,-0.03 0.19,0.04 0.37,0.06 0.55,0.03zm-0.46 -1.53c-0.12,0.03 -0.25,0.16 -0.33,0.23 -0.09,0.09 -0.2,0.19 -0.25,0.34l0.14 -0.15c0.14,-0.19 0.3,-0.27 0.4,-0.38 0.03,-0.03 0.02,-0.02 0.04,-0.04zm-1.27 0.76c-0.09,-0.11 -0.23,-0.18 -0.38,-0.23 -0.16,-0.05 -0.35,-0.1 -0.53,-0.1l0.24 0.07c0.38,0.11 0.32,0.1 0.67,0.26zm-0.83 0.89c0.24,-0.13 0.18,-0.22 0.77,-0.54 -0.31,0.02 -0.65,0.38 -0.77,0.54zm1.62 -0.74c0.22,0.01 0.32,0 0.55,0.05 0.13,0.03 0.36,0.11 0.47,0.12 -0.22,-0.15 -0.74,-0.29 -1.02,-0.17z"/>
  <path class="fil1" d="M14.8 7.65c-0.04,-0.26 -0.02,-0.54 -0.06,-0.82 -0.12,-0.74 -0.36,-1.36 -0.74,-1.96 -0.13,-0.2 -0.43,-0.56 -0.61,-0.72 -0.05,-0.04 -0.05,-0.05 -0.11,-0.1 -1.48,-1.4 -4.03,-1.4 -5.98,-1.12 -0.42,0.06 -1.22,0.14 -1.17,0.63 0.14,0.29 0.58,0.32 0.96,0.34 0.99,0.05 1.86,0.26 2.61,0.93 0.24,0.23 0.54,0.6 0.72,0.88 0.17,0.27 0.3,0.55 0.45,0.85 0.15,0.29 0.27,0.61 0.4,0.91 0.07,0.15 0.13,0.31 0.19,0.46 0.08,0.16 0.16,0.3 0.23,0.45 -0.05,0.03 -0.1,0.06 -0.15,0.1 -0.05,0.05 -0.06,0.11 -0.05,0.21 0.11,0.11 0.29,0.04 0.49,0.2 0.17,0.13 0.22,0.13 0.42,0.23 -0.13,0.17 -0.23,0.2 -0.33,0.49 -0.08,0.23 -0.15,0.5 0.07,0.64 0.19,-0.03 0.13,-0.14 0.29,-0.23 0.12,-0.07 0.25,-0.09 0.37,-0.15 0.15,-0.08 0.32,-0.23 0.4,-0.36 0.02,-0.03 0.03,-0.06 0.05,-0.09 0,0 0.01,-0.01 0.01,-0.01 0,-0.01 0.01,-0.02 0.01,-0.02 0.03,-0.04 0.03,-0.03 0.05,-0.05l-0.01 0.78 -0.01 0.14c0.24,-0.07 0.41,0.04 0.52,0.18 0.04,-0.22 0.04,-0.38 0.01,-0.61 -0.03,-0.19 -0.09,-0.4 -0.11,-0.57 0.54,0.4 0.7,0.23 1.06,0.24 0.17,0.01 0.17,0.11 0.38,0.08 0.18,-0.27 -0.25,-0.71 -0.57,-0.84 -0.09,-0.03 -0.1,-0.02 -0.17,-0.08 0.12,-0.09 0.23,-0.21 0.31,-0.39 0.16,-0.3 0.22,-0.2 0.36,-0.37 -0.01,-0.2 -0.14,-0.16 -0.29,-0.25zm-0.95 1.01c0.31,-0.01 0.65,-0.38 0.77,-0.54 -0.07,0.04 -0.13,0.09 -0.19,0.15 -0.22,0.21 -0.3,0.24 -0.58,0.39zm-0.85 0.21c-0.22,-0.02 -0.32,0 -0.55,-0.06 -0.13,-0.03 -0.36,-0.1 -0.46,-0.11 0.22,0.15 0.72,0.28 1.01,0.17zm-0.47 0.91c0.11,-0.04 0.24,-0.16 0.32,-0.24 0.09,-0.08 0.2,-0.19 0.25,-0.34 -0.01,0.01 -0.02,0.01 -0.02,0.02 0,0.01 -0.01,0.01 -0.02,0.01 -0.15,0.16 -0.09,0.18 -0.39,0.4 -0.04,0.03 -0.04,0.03 -0.07,0.07l-0.07 0.08zm2.18 -0.44c-0.13,-0.05 -0.38,-0.08 -0.91,-0.32 0.03,0.04 0.08,0.09 0.16,0.13 0.06,0.03 0.15,0.07 0.21,0.1 0.16,0.05 0.35,0.09 0.54,0.09z"/>
  <path class="fil1" d="M13.82 10.44c-0.11,-0.14 -0.28,-0.25 -0.52,-0.18l0.01 -0.14c-0.07,0.08 -0.05,0.45 0.35,0.44 0.12,0 0.13,-0.03 0.16,-0.12z"/>
  <path class="fil1" d="M12.53 9.78l-0.09 0.06c0.15,-0.04 0.06,-0.02 0.09,-0.06z"/>
  <path class="fil2" d="M18.63 5.9c-0.4,-0.09 -0.85,-0.21 -0.85,-0.59 0,-0.38 0.32,-0.64 0.89,-0.64 1.15,0 1.05,0.81 1.62,0.81 0.3,0 0.57,-0.18 0.57,-0.49 0,-0.73 -1.14,-1.27 -2.11,-1.27 -1.04,0 -2.16,0.45 -2.16,1.66 0,0.58 0.2,1.2 1.33,1.48l1.39 0.36c0.42,0.1 0.53,0.34 0.53,0.56 0,0.37 -0.35,0.72 -1,0.72 -1.25,0 -1.07,-0.98 -1.74,-0.98 -0.31,0 -0.52,0.21 -0.52,0.51 0,0.59 0.7,1.37 2.26,1.37 1.5,0 2.24,-0.73 2.24,-1.71 0,-0.63 -0.29,-1.3 -1.42,-1.56l-1.03 -0.23z"/>
  <path id="1" class="fil2" d="M21.9 8.82c0,0.3 0.12,0.55 0.55,0.55 0.43,0 0.55,-0.25 0.55,-0.55l0 -3.03c0,-0.3 -0.12,-0.55 -0.55,-0.55 -0.43,0 -0.55,0.25 -0.55,0.55l0 3.03zm-0.02 -4.53c0,0.32 0.26,0.58 0.57,0.58 0.32,0 0.58,-0.26 0.58,-0.58 0,-0.31 -0.26,-0.57 -0.58,-0.57 -0.31,0 -0.57,0.26 -0.57,0.57z"/>
  <path id="2" class="fil2" d="M25.4 8.76c0,0.37 0.24,0.61 0.62,0.61 0.38,0 0.62,-0.24 0.62,-0.61l0 -3.87 1.17 0c0.35,0 0.64,-0.18 0.64,-0.52 0,-0.34 -0.29,-0.52 -0.64,-0.52l-3.58 0c-0.35,0 -0.64,0.18 -0.64,0.52 0,0.34 0.29,0.52 0.64,0.52l1.17 0 0 3.87z"/>
  <path id="3" class="fil2" d="M31.69 6.37c0,-0.79 -0.73,-1.13 -1.79,-1.13 -1.13,0 -1.75,0.55 -1.75,0.99 0,0.23 0.19,0.42 0.47,0.42 0.44,0 0.46,-0.6 1.27,-0.6 0.37,0 0.7,0.14 0.7,0.45 0,0.32 -0.21,0.38 -0.48,0.41l-0.67 0.07c-0.84,0.1 -1.54,0.36 -1.54,1.27 0,0.69 0.62,1.12 1.25,1.12 0.58,0 1.07,-0.16 1.5,-0.64 0.02,0.34 0.18,0.64 0.65,0.64 0.27,0 0.5,-0.17 0.5,-0.42 0,-0.17 -0.11,-0.28 -0.11,-0.74l0 -1.84zm-1.1 1.48c0,0.41 -0.37,0.8 -0.98,0.8 -0.37,0 -0.61,-0.2 -0.61,-0.45 0,-0.33 0.25,-0.48 0.71,-0.54l0.4 -0.06c0.13,-0.03 0.36,-0.07 0.48,-0.18l0 0.43z"/>
  <path id="4" class="fil2" d="M32.64 8.82c0,0.3 0.12,0.55 0.55,0.55 0.43,0 0.55,-0.25 0.55,-0.55l0 -1.81c0,-0.55 0.45,-0.87 0.83,-0.87 0.48,0 0.7,0.32 0.7,0.76l0 1.92c0,0.3 0.12,0.55 0.55,0.55 0.43,0 0.55,-0.25 0.55,-0.55l0 -2.14c0,-1.11 -0.73,-1.44 -1.39,-1.44 -0.62,0 -1.02,0.28 -1.33,0.69l-0.02 0 0 -0.14c0,-0.34 -0.15,-0.55 -0.5,-0.55 -0.34,0 -0.49,0.21 -0.49,0.55l0 3.03z"/>
  <path id="5" class="fil2" d="M37.3 8.82c0,0.3 0.12,0.55 0.55,0.55 0.43,0 0.55,-0.25 0.55,-0.55l0 -3.03c0,-0.3 -0.12,-0.55 -0.55,-0.55 -0.43,0 -0.55,0.25 -0.55,0.55l0 3.03zm-0.02 -4.53c0,0.32 0.26,0.58 0.57,0.58 0.32,0 0.57,-0.26 0.57,-0.58 0,-0.31 -0.25,-0.57 -0.57,-0.57 -0.31,0 -0.57,0.26 -0.57,0.57z"/>
 </g>
</svg>
